<svg width="64" height="64" viewBox="0 0 64 64" fill="none" xmlns="http://www.w3.org/2000/svg">
<path opacity="0.21" fill-rule="evenodd" clip-rule="evenodd" d="M31.6824 63.6668C31.6771 63.6668 31.6719 63.6668 31.6667 63.6668C31.6614 63.6668 31.6562 63.6668 31.651 63.6668H24.2778C10.8695 63.6668 0 52.7973 0 39.389V32.0002V24.6113C0 11.203 10.8695 0.333496 24.2778 0.333496H31.6667H39.0556C52.4638 0.333496 63.3333 11.203 63.3333 24.6113V31.9845C63.3333 31.9897 63.3333 31.9949 63.3333 32.0002C63.3333 32.0054 63.3333 32.0106 63.3333 32.0159V39.3891C63.3333 52.7973 52.4638 63.6668 39.0555 63.6668H31.6824Z" fill="#07A04A"/>
<path opacity="0.587821" fill-rule="evenodd" clip-rule="evenodd" d="M21.8145 24.9631C21.8145 28.0723 24.3349 30.5928 27.4441 30.5928C30.5532 30.5928 33.0737 28.0723 33.0737 24.9631C33.0737 21.854 30.5532 19.3335 27.4441 19.3335C24.3349 19.3335 21.8145 21.854 21.8145 24.9631ZM35.8887 30.5928C35.8887 32.9247 37.7791 34.815 40.1109 34.815C42.4428 34.815 44.3332 32.9247 44.3332 30.5928C44.3332 28.2609 42.4428 26.3706 40.1109 26.3706C37.7791 26.3706 35.8887 28.2609 35.8887 30.5928Z" fill="#07A04A"/>
<path fill-rule="evenodd" clip-rule="evenodd" d="M27.4211 33.4077C20.7761 33.4077 15.3243 36.8228 14.7787 43.5399C14.749 43.9058 15.4488 44.667 15.8017 44.667H39.051C40.1082 44.667 40.1247 43.8162 40.1082 43.541C39.6958 36.6352 34.1595 33.4077 27.4211 33.4077ZM47.7895 44.667H42.3629V44.6667C42.3629 41.4989 41.3163 38.5755 39.55 36.2234C44.3441 36.276 48.2585 38.7 48.5531 43.8226C48.565 44.0289 48.5531 44.667 47.7895 44.667Z" fill="#07A04A"/>
</svg>
